ply
format ascii 1.0
element vertex 20
property float x
property float y
property float z
property uchar red
property uchar green
property uchar blue
end_header
-0.175400 -0.126189 4.253245 128 128 128
-0.233347 -0.112334 4.026749 128 128 128
-0.295133 -0.195344 6.717073 128 128 128
-0.179505 -0.118952 4.381611 128 128 128
-0.281796 -0.163960 5.591035 128 128 128
0.046989 -0.293239 11.616672 128 128 128
-0.063931 -0.162502 7.656017 128 128 128
-0.222351 -0.168875 7.432800 128 128 128
-0.227375 -0.133571 5.778239 128 128 128
-0.259020 -0.155531 5.309466 128 128 128
-0.323876 -0.199215 6.750741 128 128 128
-0.258680 -0.145330 6.619464 128 128 128
-0.145119 -0.157011 6.410230 128 128 128
-0.362134 -0.171934 6.459560 128 128 128
-0.350073 -0.178636 6.244532 128 128 128
-0.360056 -0.095886 5.543166 128 128 128
0.388577 0.206656 14.556418 128 128 128
1.225576 0.147461 21.244018 128 128 128
0.082943 -0.260081 9.615199 128 128 128
0.556526 -0.352440 8.226067 128 128 128
